# xmcd
#
# Track frame offsets:
#	150
#	11745
#	22980
#	35232
#	49339
#	61772
#	70975
#	91660
#	107835
#	116390
#
# Disc length: 1719 seconds
#
# Revision: 3
# Processed by: cddbd v1.5.2PL0 Copyright (c) Steve Scherf et al.
# Submitted via: audiograbber 1.83.01
#
DISCID=7e06b50a
DTITLE=Various Artist - The Best Of Dueling Country Vol 2
DYEAR=2003
DGENRE=Country
TTITLE0=Patsy Cline - Walking After Midnight
TTITLE1=Roger Miller - King Of The Road
TTITLE2=Merle Haggard - Okie From Muskogee
TTITLE3=Lee Greenwood - Dixie Road
TTITLE4=Kenny Rogers and The First Edition - Reuben James
TTITLE5=Frankie Laine - Rawhide
TTITLE6=Freddy Fender - Six Days On The Road
TTITLE7=Lynn Anderson - I Was Country When Country Wasn't Cool
TTITLE8=Waylon Jennings - Abilene
TTITLE9=Donna Fargo - Don't Be Angry
EXTD=YEAR: 2003
EXTT0=
EXTT1=
EXTT2=
EXTT3=
EXTT4=
EXTT5=
EXTT6=
EXTT7=
EXTT8=
EXTT9=
PLAYORDER=
